<?xml version="1.0" encoding="utf-8"?>
<!-- Generator: Adobe Illustrator 16.0.0, SVG Export Plug-In . SVG Version: 6.00 Build 0)  -->
<!DOCTYPE svg PUBLIC "-//W3C//DTD SVG 1.1//EN" "http://www.w3.org/Graphics/SVG/1.1/DTD/svg11.dtd">
<svg version="1.1" id="Layer_1" xmlns="http://www.w3.org/2000/svg" xmlns:xlink="http://www.w3.org/1999/xlink" x="0px" y="0px"
	 width="292.105px" height="497.368px" viewBox="0 0 292.105 497.368" enable-background="new 0 0 292.105 497.368"
	 xml:space="preserve">
<g>
	<g>
		<g>
			<path fill="#F3D9C1" d="M159.208,221.966c-9.05,1.188-17.064-1.457-23.19-7.659c-20.457-20.701-13.043-76.961-11.351-88.029
				l18.9,2.892l-9.449-1.446l9.449,1.442c-3.593,23.598-4.091,61.446,6.053,71.706c1.332,1.345,3.216,2.646,7.104,2.137
				c0.049-0.007,0.097-0.013,0.145-0.021c31.521-4.439,61.93-59.432,60.355-86.481l19.089-1.111
				c1.001,17.213-7.21,42.113-20.919,63.433c-21.673,33.7-44.299,41.465-55.857,43.094
				C159.427,221.937,159.318,221.952,159.208,221.966z"/>
		</g>
		
			<path fill="none" stroke="#010101" stroke-width="4.2057" stroke-linecap="round" stroke-linejoin="round" stroke-miterlimit="10" d="
			M17.212,169.235"/>
		<g>
			<path fill="#FBE0C7" d="M52.364,282.031c-23.083-12.274-34.4-41.654-33.642-87.328c0.535-32.105,6.936-60.585,7.207-61.778
				l18.708,4.25c-6.699,29.544-16.753,110.109,16.735,127.912L52.364,282.031z"/>
		</g>
		<path fill="#2C2429" d="M124.059,217.583l-62,1.501l-17.946-0.902c0,0-7.366,58.665-5.898,91.322
			c1.466,32.662,4.577,134.183,13.473,141.607c8.889,7.415,12.268,1.46,12.268,1.46l17.437-174.52l4.893-0.158l8.971,172.192
			c0,0,6.601,12.671,15.682,5.486c9.076-7.188,14.345-113.938,16.657-146.546C129.906,276.415,124.059,217.583,124.059,217.583z"/>
		<g>
			<path fill="#9BC2D2" d="M16.68,138.206c0.002-0.051,0.012-0.098,0.014-0.144C16.442,138.017,16.417,138.055,16.68,138.206z"/>
			<path fill="#6D8094" d="M72.662,102.888H53.077c0,0-35.181-2.4-36.384,35.174c2.469,0.47,28.785,3.195,28.785,3.195
				l-6.978,101.294c0,0,2.573,11.711,45.964,12.207v0.011c0.103-0.002,0.191-0.003,0.292-0.003c0.1,0,0.196,0.001,0.29,0.003v-0.011
				c43.398-0.496,45.966-12.207,45.966-12.207l-6.972-101.294c0,0,24.499-1.927,26.965-2.392
				c-3.197-36.379-34.562-35.978-34.562-35.978H96.856H72.662z"/>
			<g>
				<defs>
					<path id="SVGID_1_" d="M72.662,102.888H53.077c0,0-35.181-2.4-36.384,35.174c2.469,0.47,28.785,3.195,28.785,3.195
						l-6.978,101.294c0,0,2.573,11.711,45.964,12.207v0.011c0.103-0.002,0.191-0.003,0.292-0.003c0.1,0,0.196,0.001,0.29,0.003
						v-0.011c43.398-0.496,45.966-12.207,45.966-12.207l-6.972-101.294c0,0,24.499-1.927,26.965-2.392
						c-3.197-36.379-34.562-35.978-34.562-35.978H96.856H72.662z"/>
				</defs>
				<clipPath id="SVGID_2_">
					<use xlink:href="#SVGID_1_"  overflow="visible"/>
				</clipPath>
				<g clip-path="url(#SVGID_2_)">
					<rect x="-3.126" y="109.525" fill="#99C5D2" width="157.434" height="6.909"/>
					<rect x="-3.126" y="127.023" fill="#99C5D2" width="157.434" height="6.909"/>
					<rect x="-3.126" y="144.521" fill="#99C5D2" width="157.434" height="6.909"/>
					<rect x="-3.127" y="162.019" fill="#99C5D2" width="157.435" height="6.909"/>
					<rect x="-3.126" y="179.516" fill="#99C5D2" width="157.434" height="6.909"/>
					<rect x="-3.127" y="197.014" fill="#99C5D2" width="157.435" height="6.908"/>
					<rect x="-3.126" y="214.511" fill="#99C5D2" width="157.434" height="6.909"/>
					<rect x="-3.126" y="232.009" fill="#99C5D2" width="157.434" height="6.909"/>
					<rect x="-3.126" y="249.507" fill="#99C5D2" width="157.434" height="6.908"/>
				</g>
			</g>
			<path fill="#9BC2D2" d="M151.007,138.866c0.005,0.044,0.011,0.091,0.011,0.138C151.286,138.855,151.263,138.818,151.007,138.866z
				"/>
		</g>
		
			<path fill="none" stroke="#010101" stroke-width="4.4884" stroke-linecap="round" stroke-linejoin="round" stroke-miterlimit="10" d="
			M109.403,243.646"/>
		<path fill="#F3D9C1" d="M96.856,102.888L96.212,75.06L77.86,62.668l-1.467,40.057C76.393,102.725,87.894,125.802,96.856,102.888z"
			/>
		<path fill="#FBE0C7" d="M115.332,34.492c0,0,1.348,25.778,5.995,31.326c4.646,5.546-5.846,3.451-8.546,1.051
			c-2.7-2.396,7.049,29.684-10.495,25.637c-17.534-4.05-23.68-27.584-23.68-27.584s-8.095-32.378,8.542-32.077
			C103.792,33.142,115.332,34.492,115.332,34.492z"/>
		<path fill="#F0D757" d="M117.671,37.559c0,0,5.531-1.875,5.031-11.094c-0.5-9.218-10.711-11.346-23.675-8.965
			c-14.621,2.673-21.175,3.981-21.928,3.981c-0.749,0-23.692,0.961-11.46,24.919c9.131,17.892,5.729,32.15,10.466,34.887
			c4.733,2.739,1.494-23.424,1.494-23.424s3.488-6.228,6.233-0.995c2.734,5.232,13.456-0.501,7.223-8.226
			c-6.231-7.719-7.726-11.458-1.493-10.959C95.79,38.175,110.544,40.443,117.671,37.559z"/>
		<path fill="#FBE0C7" d="M84.812,60.022c0,3.806-2.074,6.895-4.635,6.895c-2.556,0-4.641-3.089-4.641-6.895
			c0-3.809,2.085-6.896,4.641-6.896C82.739,53.126,84.812,56.213,84.812,60.022z"/>
		<path fill="none" stroke="#3E352E" stroke-width="0.8795" stroke-linecap="round" stroke-miterlimit="10" d="M106.848,47.832
			c0-0.763,0.624-1.381,1.382-1.381c0.763,0,1.382,0.618,1.382,1.381"/>
		<path fill="none" stroke="#3E352E" stroke-width="0.8795" stroke-linecap="round" stroke-miterlimit="10" d="M99.395,47.832
			c0-0.763,0.618-1.381,1.382-1.381c0.767,0,1.379,0.618,1.379,1.381"/>
		<path fill="#C6796E" d="M106.848,76.281c0,2.904-2.347,5.251-5.244,5.251c-2.897,0-5.249-2.347-5.249-5.251H106.848z"/>
		<path fill="#F0D757" d="M100.644,33.732c0,3.31-2.688,5.995-5.997,5.995c-3.316,0-5.997-2.685-5.997-5.995
			c0-3.313,2.681-5.996,5.997-5.996C97.956,27.736,100.644,30.419,100.644,33.732z"/>
		<circle fill="#F0D757" cx="82.252" cy="37.732" r="8.195"/>
		<path fill="#F0D757" d="M106.637,35.936c0,2.535-2.057,4.592-4.595,4.592c-2.54,0-4.595-2.057-4.595-4.592
			c0-2.542,2.056-4.6,4.595-4.6C104.58,31.336,106.637,33.393,106.637,35.936z"/>
		<path fill="#F0D757" d="M116.629,33.933c0,3.973-3.216,7.193-7.196,7.193c-3.972,0-7.192-3.22-7.192-7.193
			c0-3.973,3.22-7.195,7.192-7.195C113.413,26.738,116.629,29.96,116.629,33.933z"/>
		<path fill="none" stroke="#FBE0C7" stroke-width="17.5907" stroke-miterlimit="10" d="M32.284,135.051"/>
		
			<path fill="none" stroke="#010101" stroke-width="4.087" stroke-linecap="round" stroke-linejoin="round" stroke-miterlimit="10" d="
			M146.19,178.271"/>
		<g>
			<path fill="#FBE0C7" d="M180.351,287.884c-22.432-11.928-33.43-40.479-32.692-84.863c0.521-31.201,6.741-58.876,7.004-60.036
				l18.18,4.131c-6.511,28.71-16.28,107.002,16.264,124.304L180.351,287.884z"/>
		</g>
		<g>
			<path fill="#FBE0C7" d="M243.765,285.656c22.437-11.925,33.438-40.481,32.697-84.865c-0.519-31.201-6.739-58.875-7.005-60.035
				l-18.182,4.133c6.51,28.712,16.281,107.004-16.264,124.305L243.765,285.656z"/>
		</g>
		<path fill="#A0A9B3" d="M250.022,225.254l-60.25,1.46l-17.44-0.877c0,0-7.159,57.009-5.731,88.745
			c1.424,31.74,4.447,130.397,13.093,137.611c8.638,7.206,10.209,0.174,10.209,0.174l18.658-168.35l4.754-0.154l8.719,167.334
			c0,0,4.739,11.113,13.565,4.134c8.819-6.986,15.613-109.525,17.859-141.212C255.705,282.428,250.022,225.254,250.022,225.254z"/>
		<g>
			<path fill="#262A2F" d="M217.156,445.845l15.997-0.546l2.546,7.272l1.272-7.454l4-0.546l-1.637,18.543l19.451,7.454
				c0,0,25.997-10.907,25.815,17.452c-47.812,0-70.354,0-70.354,0s0.426-10.892,3.636-15.089
				C220.247,469.841,217.156,445.845,217.156,445.845z"/>
			<path fill="#262A2F" d="M283.874,490.565H214.43c-1.001,0-1.819-0.818-1.819-1.818l0,0c0-0.999,0.818-1.816,1.819-1.816h69.444
				c1,0,1.818,0.817,1.818,1.816l0,0C285.692,489.747,284.874,490.565,283.874,490.565z"/>
			<circle fill="#FFFFFF" cx="226.246" cy="475.112" r="3.09"/>
			<path fill="#262A2F" d="M265.331,486.931c0,0-5.09-18.908,7.636-18.181c12.726,0.729,11.452,15.816,11.635,19.271
				C284.783,491.474,265.331,486.931,265.331,486.931z"/>
		</g>
		<g>
			<path fill="#9BC2D2" d="M145.673,148.117c0.003-0.049,0.012-0.094,0.014-0.139C145.442,147.933,145.419,147.97,145.673,148.117z"
				/>
			<path fill="#231F20" d="M200.076,113.796h-19.033c0,0-34.188-2.333-35.356,34.182c2.399,0.457,27.973,3.105,27.973,3.105
				l-6.781,98.438c0,0,2.501,11.379,44.668,11.859v0.012c0.101-0.002,0.187-0.003,0.284-0.003c0.099,0,0.19,0.001,0.282,0.003
				v-0.012c42.174-0.48,44.668-11.859,44.668-11.859l-6.774-98.438c0,0,23.809-1.873,26.205-2.325
				c-3.108-35.352-33.588-34.961-33.588-34.961h-19.035H200.076z"/>
			<path fill="#9BC2D2" d="M276.211,148.757c0.005,0.043,0.011,0.089,0.011,0.135C276.482,148.747,276.459,148.711,276.211,148.757z
				"/>
		</g>
		
			<path fill="none" stroke="#010101" stroke-width="4.3617" stroke-linecap="round" stroke-linejoin="round" stroke-miterlimit="10" d="
			M235.78,250.581"/>
		<path fill="#F3D9C1" d="M201.879,113.796l0.627-27.044l17.834-12.041l1.426,38.927
			C221.766,113.638,210.589,136.063,201.879,113.796z"/>
		<path fill="#FBE0C7" d="M183.925,47.329c0,0-1.31,25.052-5.824,30.442c-4.516,5.389,5.68,3.353,8.304,1.021
			c2.625-2.329-6.85,28.846,10.199,24.913c17.038-3.935,23.012-26.806,23.012-26.806s7.866-31.464-8.302-31.172
			C195.14,46.018,183.925,47.329,183.925,47.329z"/>
		<path fill="#3E352E" d="M181.652,50.31c0,0-5.375-1.822-4.89-10.781c0.485-8.958,10.408-11.025,23.007-8.712
			c14.209,2.598,20.577,3.868,21.31,3.868c0.728,0,23.022,0.934,11.136,24.216c-8.872,17.387-5.566,31.243-10.171,33.903
			c-4.599,2.661-1.451-22.764-1.451-22.764s-3.39-6.052-6.057-0.967c-2.658,5.084-13.076-0.486-7.02-7.993
			c6.056-7.501,7.507-11.135,1.45-10.651C202.915,50.908,188.578,53.112,181.652,50.31z"/>
		<path fill="#FBE0C7" d="M213.584,72.139c0,3.699,2.016,6.701,4.503,6.701c2.485,0,4.51-3.001,4.51-6.701
			c0-3.702-2.024-6.701-4.51-6.701C215.6,65.438,213.584,68.438,213.584,72.139z"/>
		<path fill="none" stroke="#3E352E" stroke-width="0.8547" stroke-linecap="round" stroke-miterlimit="10" d="M192.17,60.293
			c0-0.742-0.605-1.343-1.344-1.343c-0.741,0-1.343,0.601-1.343,1.343"/>
		<path fill="none" stroke="#3E352E" stroke-width="0.8547" stroke-linecap="round" stroke-miterlimit="10" d="M199.413,60.293
			c0-0.742-0.6-1.343-1.343-1.343c-0.746,0-1.341,0.601-1.341,1.343"/>
		<path fill="#C6796E" d="M192.17,87.939c0,2.823,2.28,5.103,5.097,5.103c2.814,0,5.1-2.28,5.1-5.103H192.17z"/>
		<circle fill="#3E352E" cx="232.58" cy="41.543" r="10.684"/>
		<path fill="#3E352E" d="M216.458,34.352c0,3.864,3.133,6.994,6.996,6.994c3.86,0,6.991-3.129,6.991-6.994
			c0-3.857-3.131-6.989-6.991-6.989C219.591,27.363,216.458,30.495,216.458,34.352z"/>
		<path fill="#3E352E" d="M208.302,33.186c0,4.081,3.308,7.386,7.381,7.386c4.077,0,7.384-3.305,7.384-7.386
			c0-4.072-3.307-7.376-7.384-7.376C211.609,25.81,208.302,29.113,208.302,33.186z"/>
		<path fill="#3E352E" d="M192.18,28.142c0,6.324,5.132,11.456,11.46,11.456c6.33,0,11.463-5.132,11.463-11.456
			c0-6.328-5.133-11.461-11.463-11.461C197.312,16.681,192.18,21.814,192.18,28.142z"/>
		<path fill="#3E352E" d="M186.548,27.754c0,3.321,2.695,6.017,6.022,6.017c3.324,0,6.02-2.696,6.02-6.017
			c0-3.329-2.695-6.023-6.02-6.023C189.243,21.731,186.548,24.426,186.548,27.754z"/>
		<path fill="#3E352E" d="M179.752,27.754c0,2.998,2.433,5.431,5.436,5.431c3.004,0,5.438-2.434,5.438-5.431
			c0-3.005-2.434-5.443-5.438-5.443C182.185,22.311,179.752,24.75,179.752,27.754z"/>
		<path fill="#3E352E" d="M170.815,36.296c0,4.399,3.564,7.965,7.961,7.965c4.402,0,7.964-3.566,7.964-7.965
			c0-4.398-3.562-7.963-7.964-7.963C174.38,28.333,170.815,31.898,170.815,36.296z"/>
		<circle fill="#3E352E" cx="235.496" cy="52.028" r="9.71"/>
		<path fill="#3E352E" d="M226.752,61.937c0,3.967,3.217,7.186,7.187,7.186c3.973,0,7.189-3.219,7.189-7.186
			c0-3.972-3.217-7.19-7.189-7.19C229.969,54.747,226.752,57.965,226.752,61.937z"/>
		<path fill="#3E352E" d="M225.786,69.123c0,2.791,2.26,5.048,5.046,5.048c2.791,0,5.052-2.257,5.052-5.048
			c0-2.791-2.261-5.05-5.052-5.05C228.046,64.073,225.786,66.332,225.786,69.123z"/>
		<path fill="#3E352E" d="M223.062,75.145c0,2.57,2.086,4.659,4.662,4.659c2.577,0,4.662-2.089,4.662-4.659
			c0-2.574-2.085-4.663-4.662-4.663C225.148,70.482,223.062,72.571,223.062,75.145z"/>
		<circle fill="#3E352E" cx="227.144" cy="83.107" r="5.437"/>
		<path fill="#3E352E" d="M219.76,90.104c0,2.998,2.44,5.432,5.44,5.432s5.436-2.435,5.436-5.432c0-3.009-2.436-5.447-5.436-5.447
			S219.76,87.095,219.76,90.104z"/>
		<path fill="#3E352E" d="M171.009,45.424c0,4.187,3.39,7.578,7.576,7.578c4.183,0,7.571-3.391,7.571-7.578
			c0-4.182-3.389-7.573-7.571-7.573C174.398,37.851,171.009,41.243,171.009,45.424z"/>
		<path fill="#3E352E" d="M198.199,46.591c0,3.215,2.611,5.825,5.828,5.825c3.222,0,5.829-2.61,5.829-5.825
			c0-3.22-2.607-5.828-5.829-5.828C200.811,40.764,198.199,43.371,198.199,46.591z"/>
		<circle fill="#3E352E" cx="216.071" cy="50.479" r="7.965"/>
		<path fill="#3E352E" d="M192.375,48.731c0,2.464,2,4.463,4.466,4.463c2.467,0,4.466-1.999,4.466-4.463
			c0-2.47-1.999-4.47-4.466-4.47C194.375,44.262,192.375,46.261,192.375,48.731z"/>
		<path fill="#3E352E" d="M182.664,46.786c0,3.861,3.125,6.99,6.993,6.99c3.86,0,6.99-3.129,6.99-6.99
			c0-3.861-3.13-6.992-6.99-6.992C185.789,39.794,182.664,42.925,182.664,46.786z"/>
		<g>
			<g>
				<path fill="#FBE0C7" d="M236.101,125.142c-0.3,0-0.606-0.057-0.898-0.18c-1.188-0.501-1.745-1.862-1.249-3.051
					c1.231-2.94,1.488-5.276,0.744-6.744c-0.563-1.116-1.615-1.451-1.624-1.456c-1.251-0.305-2.017-1.564-1.71-2.816
					c0.303-1.252,1.566-2.022,2.813-1.711c0.319,0.075,3.146,0.845,4.685,3.881c1.39,2.762,1.188,6.343-0.607,10.646
					C237.878,124.603,237.008,125.142,236.101,125.142z"/>
			</g>
			<g>
				<path fill="#FBE0C7" d="M240.761,125.142c-0.301,0-0.604-0.057-0.896-0.18c-1.189-0.501-1.748-1.862-1.251-3.051
					c1.227-2.94,1.49-5.276,0.742-6.744c-0.561-1.116-1.614-1.451-1.621-1.456c-1.252-0.305-2.015-1.564-1.713-2.816
					c0.306-1.252,1.565-2.022,2.82-1.711c0.312,0.075,3.146,0.845,4.682,3.881c1.389,2.762,1.188,6.343-0.607,10.646
					C242.541,124.603,241.675,125.142,240.761,125.142z"/>
			</g>
			<g>
				<path fill="#FBE0C7" d="M245.131,125.142c-0.302,0-0.603-0.057-0.893-0.18c-1.191-0.501-1.751-1.862-1.255-3.051
					c1.227-2.94,1.49-5.276,0.749-6.744c-0.568-1.116-1.62-1.451-1.626-1.456c-1.256-0.305-2.015-1.564-1.711-2.816
					c0.302-1.252,1.562-2.022,2.817-1.711c0.315,0.075,3.145,0.845,4.676,3.881c1.399,2.762,1.192,6.343-0.599,10.646
					C246.911,124.603,246.042,125.142,245.131,125.142z"/>
			</g>
			<g>
				<path fill="#FBE0C7" d="M249.211,125.142c-0.302,0-0.604-0.057-0.897-0.18c-1.189-0.501-1.748-1.862-1.251-3.051
					c1.229-2.94,1.489-5.276,0.748-6.744c-0.564-1.116-1.617-1.451-1.63-1.456c-1.246-0.305-2.016-1.564-1.707-2.816
					c0.306-1.252,1.564-2.022,2.816-1.711c0.313,0.075,3.145,0.845,4.679,3.881c1.394,2.762,1.191,6.343-0.603,10.646
					C250.991,124.603,250.121,125.142,249.211,125.142z"/>
			</g>
			<path fill="#FBE0C7" d="M236.636,113.732h-7.914c0,0,0.137-5.25,5.455-4.547C238.479,109.995,236.636,113.732,236.636,113.732z"
				/>
		</g>
		<path fill="none" stroke="#FBE0C7" stroke-width="17.0944" stroke-miterlimit="10" d="M160.837,145.05"/>
		<g>
			<path fill="#3D4349" d="M91.77,445.845l15.998-0.546l2.545,7.272l1.273-7.454l4-0.546l-1.636,18.543l19.451,7.454
				c0,0,25.998-10.907,25.816,17.452c-47.812,0-70.354,0-70.354,0s0.425-10.892,3.636-15.089
				C94.86,469.841,91.77,445.845,91.77,445.845z"/>
			<path fill="#3D4349" d="M158.487,490.565H89.043c-1,0-1.818-0.818-1.818-1.818l0,0c0-0.999,0.818-1.816,1.818-1.816h69.444
				c1.001,0,1.818,0.817,1.818,1.816l0,0C160.306,489.747,159.488,490.565,158.487,490.565z"/>
			<circle fill="#FFFFFF" cx="100.859" cy="475.112" r="3.09"/>
		</g>
	</g>
	<g>
		<path fill="#4C5259" d="M45.527,445.733l15.999-0.546l2.544,7.272l1.273-7.454l3.999-0.546l-1.636,18.543l19.453,7.454
			c0,0,25.996-10.907,25.814,17.452c-47.812,0-70.354,0-70.354,0s0.426-10.892,3.636-15.089
			C48.618,469.729,45.527,445.733,45.527,445.733z"/>
		<path fill="#4C5259" d="M112.246,490.454H42.801c-1,0-1.818-0.818-1.818-1.818l0,0c0-0.999,0.818-1.816,1.818-1.816h69.445
			c1,0,1.818,0.817,1.818,1.816l0,0C114.064,489.636,113.246,490.454,112.246,490.454z"/>
	</g>
	<g>
		<path fill="#4C5259" d="M172.032,447.006l15.998-0.546l2.544,7.272l1.273-7.454l4-0.546l-1.637,18.543l19.452,7.454
			c0,0,25.996-10.907,25.815,17.452c-47.812,0-70.355,0-70.355,0s0.427-10.892,3.636-15.089
			C175.123,471.002,172.032,447.006,172.032,447.006z"/>
		<path fill="#4C5259" d="M238.75,491.727h-69.444c-1,0-1.818-0.818-1.818-1.818l0,0c0-0.999,0.818-1.816,1.818-1.816h69.444
			c1.001,0,1.819,0.817,1.819,1.816l0,0C240.569,490.908,239.751,491.727,238.75,491.727z"/>
		<path fill="#4C5259" d="M220.208,488.092c0,0-5.091-18.908,7.635-18.181c12.727,0.729,11.453,15.816,11.636,19.271
			C239.659,492.635,220.208,488.092,220.208,488.092z"/>
	</g>
</g>
</svg>
